<?xml version="1.0" encoding="utf-8"?>
<!-- Generator: Adobe Illustrator 21.0.1, SVG Export Plug-In . SVG Version: 6.00 Build 0)  -->
<svg version="1.1" id="Ebene_1" xmlns="http://www.w3.org/2000/svg" xmlns:xlink="http://www.w3.org/1999/xlink" x="0px" y="0px"
	 viewBox="0 0 612 792" style="enable-background:new 0 0 612 792;" xml:space="preserve">
<style type="text/css">
	.st0{fill:#FFFFFF;}
</style>
<g>
	<path class="st0" d="M591,680c-189,0-378,0-566.9,0c0-189,0-378,0-566.9c189,0,378,0,566.9,0C591,302.1,591,491,591,680z
		 M578.7,404.2c0.1,0.6,0.3,1.2,0.3,1.8c1.1,18.5-1.2,36.8-3.7,55.1c-0.9,6.8-3.1,13.5-5.1,20.2c-1.4,4.8-2.9,9.9-5.3,14.2
		c-9.3,16.3-15.8,33.8-22.4,51.3c-1.1,2.8-2,5.6-3.4,8.2c-5.7,11.1-11.8,21.9-20.7,30.9c-4.7,4.8-8.6,11-14.3,14.2
		c-21.9,12.5-44.4,24-66.5,36.2c-14.8,8.1-30.3,14.1-46.7,17.7c-6.7,1.5-13.8,1.6-20.8,1.6c-13.6,0-27.9,2-40.7-1.5
		c-24.2-6.5-49.1-11.2-71.7-22.7c-5.3-2.7-11.1-4.3-16.5-6.8c-11.1-5.1-22.1-10.6-33.2-15.7c-11.1-5.1-19-13.1-24-24.2
		c-3-6.6-5.7-13.4-9.4-19.6c-7.8-13.3-16.1-26.3-24.2-39.3c-2.2-3.5-4.5-7-7-10.2c-6.4-8.1-11.3-16.7-11.5-27.4c0-1.1-0.5-2.2-1-3.3
		c-3.4-6.9-6.9-13.8-10.3-20.8c-1.2-2.5-3.2-4.9-3.5-7.5c-0.8-6.6-0.6-13.2-1.3-19.8c-0.2-1.8-1.9-4.8-3.2-5
		c-3.2-0.4-3.8,2.4-3.7,5.1c0.3,7.3,0.5,14.6,1.2,21.8c0.2,2,1.5,4,2.4,5.9c1,2.1,2.2,4.1,3.1,6.1c2.3,4.8,4.6,9.5,6.7,14.4
		c1.4,3.4,2.3,7.1,3.6,10.6c2.1,5.7,3.7,11.7,6.6,16.9c4.3,7.6,9.8,14.5,14.5,21.9c6.2,9.6,11.8,19.6,18.2,29.1
		c5.1,7.6,9.7,15.3,12.7,24.1c2.9,8.6,8.3,16.1,16.2,20.9c6.7,4.1,14.2,7,21.4,10.4c13.9,6.6,27.9,13.1,41.9,19.6
		c6.1,2.8,12.2,6.1,18.6,8.1c13.7,4.2,27.8,7.3,41.5,11.6c9.6,3,19.3,4.9,29.3,4.7c10.5-0.3,21-1.3,31.4-0.8
		c14.1,0.6,27-4.1,39.4-9.1c15.2-6.1,29.6-14.3,44.1-21.9c15-7.9,29.8-16.1,44.5-24.4c3.5-2,6.9-4.5,9.6-7.4
		c5.5-6,11.2-12,15.6-18.8c6.2-9.4,12.6-18.9,16.6-29.3c7.2-18.7,14-37.5,24.3-54.8c1.8-3.1,3.3-6.5,4-10
		c2.6-12.8,4.7-25.7,7.2-38.5c3.1-15.5,2.1-31.1,2.2-46.7c0-3.8-2.1-5.6-5.7-5.1c-8.5,1.3-16.9,2.9-25.4,4.4
		c-13.4,2.2-26.8,4.5-40.2,6.5c-13.8,2.1-27.6,3.8-41.4,5.9c-13.3,2-26.5,5.1-39.8,5.9c-27.4,1.7-54.9,2.9-82.3,3.1
		c-75.3,0.4-150.7,0.1-226,0.2c-3.2,0-7.7-0.9-7.6,4c0.1,4.3,4.5,3,7.2,3c80-0.2,160-0.4,239.9-0.8c17.5-0.1,35-0.8,52.4-1.4
		c6.6-0.2,13.3-0.6,19.9-1.5c13.9-1.9,27.8-4.3,41.8-6.3c16.1-2.3,32.2-4.4,48.3-6.8C544.2,409.7,561.3,406.9,578.7,404.2z
		 M265.1,360c5.7,0,11.3-0.2,17,0.1c6.1,0.3,10.3-2.7,12.8-7.7c2-3.9,2.8-8.4,4.1-12.6c0.7-2.4,0.9-4.9,1.9-7.1
		c4.3-9.4,7.5-19,8.1-29.4c0.3-6.3,0.2-12.7,1.4-18.9c1.9-9.7,0.8-20,5.5-29.1c0.2-0.4,0.1-1,0.1-1.5c0.3-12,1-23.9,0.9-35.9
		c0-10.8-1.1-21.5-9.7-29.7c-0.9-0.9-0.9-2.7-1.2-4.1c-0.4-1.6-0.5-3.2-0.9-4.8c-2.1-7.7-4.7-15.3-6.1-23.1c-0.6-3.5-2.2-4.9-4.9-6
		c-1.7-0.7-3.5-1-5-1.9c-12.1-7.1-25.5-9.8-39.1-10c-36.5-0.5-73-0.5-109.5-0.1c-6.6,0.1-14,1.3-19.6,4.5
		c-10.4,5.8-19.4,13.5-26.7,23.5c-13.1,17.9-21.5,37.7-26.5,59c-4.6,19.6-4.3,39.7-3.3,59.6c0.2,5.1,3.7,10.9,7.3,14.8
		c9.5,10.2,21.5,17.3,34.3,22.6c29.8,12.3,60.8,20.4,92.1,27.9C220.1,355.3,241.9,362.2,265.1,360z M518,167.3
		c-0.2-3.3,0.3-5.8-0.6-7.7c-2.1-4.5-5-8.6-7.3-13c-4.7-8.7-9-17.2-17.4-23.6c-4.8-3.6-8.7-5.2-14.4-5.2c-15.9,0-28,7.8-37.2,19.2
		c-14.5,17.9-20.4,39.9-25.9,61.8c-2.3,9.3-2.3,19.2-4.9,28.4c-6.1,21-10.8,42.3-14,64c-2.7,18.1,7,34.6,24.8,38.2
		c7.4,1.5,15.1,2.1,22.6,2.4c9.3,0.4,18.7-0.2,28,0.2c9.6,0.4,18.9-1,28-3.7c10.1-3,20-6.7,30.2-9.5c4.8-1.3,6.4-3.4,6.3-8.3
		c-0.2-10.5-0.8-21.1,0.8-31.4c3-18.9,6.2-37.7,5-56.9c-0.3-4.4-0.6-9.2-2.5-13.1C532.5,194.8,524.9,180.7,518,167.3z M103,533.4
		c0-1.4-0.1-2.4,0-3.4c0.7-7.1-0.4-13.5-6.7-18.1c-0.8-0.6-1.4-2.3-1.3-3.4c1.5-9.5-2.7-18.1-3.8-27.1c-0.5-4.4-3.1-8.8-3.1-13.1
		c0.1-8.7-3.3-15.4-8.9-21.5c-4.1-4.4-9.1-6.1-14.3-4.2c-5.1,1.9-5.8,7.2-5.9,12.2c-0.1,6.7,0,13.3,0,20c0,4.2-1.1,8.7,4,11.3
		c0.6,0.3,0.7,1.7,1,2.4c-4.6,0.9-9.8,0.6-13,2.9c-5.7,4.1-8.9,10.7-9,18c-0.2,15,0,30,0.1,45c0,1.9,0.3,4,1,5.8
		c3.6,10.1,6.8,20.3,11.2,30c2.7,6,6,12.7,11,16.5c5.1,3.9,12.6,5.4,19.2,6.3c7.4,1,14.8,0.4,22.1-3.4c6.5-3.4,9-8.5,9.3-14.6
		c0.2-7.1,1-13.1,5.5-19.2c5.6-7.6,1.7-14.8-7.6-15.9C116.7,548,112.6,537.6,103,533.4z"/>
	<path d="M578.7,404.2c-17.3,2.7-34.5,5.4-51.6,7.9c-16.1,2.4-32.2,4.4-48.3,6.8c-13.9,2-27.8,4.4-41.8,6.3
		c-6.6,0.9-13.2,1.3-19.9,1.5c-17.5,0.6-35,1.3-52.4,1.4c-80,0.4-160,0.6-239.9,0.8c-2.8,0-7.1,1.3-7.2-3c-0.1-4.8,4.4-4,7.6-4
		c75.3,0,150.7,0.2,226-0.2c27.5-0.1,54.9-1.4,82.3-3.1c13.3-0.8,26.5-4,39.8-5.9c13.8-2,27.6-3.8,41.4-5.9
		c13.4-2,26.8-4.3,40.2-6.5c8.5-1.4,16.9-3,25.4-4.4c3.6-0.6,5.8,1.3,5.7,5.1c-0.1,15.6,0.9,31.3-2.2,46.7
		c-2.6,12.8-4.6,25.7-7.2,38.5c-0.7,3.5-2.2,7-4,10c-10.3,17.3-17,36.1-24.3,54.8c-4,10.4-10.4,19.9-16.6,29.3
		c-4.5,6.8-10.1,12.8-15.6,18.8c-2.7,2.9-6.1,5.5-9.6,7.4c-14.8,8.3-29.6,16.5-44.5,24.4c-14.5,7.6-28.9,15.8-44.1,21.9
		c-12.4,5-25.3,9.8-39.4,9.1c-10.4-0.5-20.9,0.6-31.4,0.8c-10,0.3-19.7-1.6-29.3-4.7c-13.7-4.3-27.8-7.4-41.5-11.6
		c-6.4-2-12.5-5.2-18.6-8.1c-14-6.5-27.9-13-41.9-19.6c-7.2-3.4-14.7-6.3-21.4-10.4c-7.8-4.8-13.2-12.3-16.2-20.9
		c-3-8.8-7.6-16.5-12.7-24.1c-6.4-9.5-12-19.4-18.2-29.1c-4.7-7.4-10.2-14.3-14.5-21.9c-3-5.2-4.6-11.2-6.6-16.9
		c-1.3-3.5-2.1-7.2-3.6-10.6c-2-4.9-4.4-9.6-6.7-14.4c-1-2.1-2.2-4.1-3.1-6.1c-0.9-1.9-2.3-3.9-2.4-5.9c-0.6-7.3-0.8-14.6-1.2-21.8
		c-0.1-2.7,0.4-5.6,3.7-5.1c1.3,0.2,3,3.2,3.2,5c0.7,6.6,0.5,13.3,1.3,19.8c0.3,2.6,2.3,5,3.5,7.5c3.4,6.9,6.9,13.8,10.3,20.8
		c0.5,1,1,2.2,1,3.3c0.1,10.7,5,19.3,11.5,27.4c2.6,3.2,4.8,6.7,7,10.2c8.1,13.1,16.4,26.1,24.2,39.3c3.7,6.2,6.4,13,9.4,19.6
		c5,11.1,12.9,19.1,24,24.2c11.1,5.1,22.1,10.6,33.2,15.7c5.4,2.5,11.2,4.1,16.5,6.8c22.7,11.5,47.6,16.2,71.7,22.7
		c12.8,3.4,27.1,1.4,40.7,1.5c6.9,0,14-0.1,20.8-1.6c16.4-3.6,31.9-9.6,46.7-17.7c22.1-12.2,44.6-23.6,66.5-36.2
		c5.6-3.2,9.5-9.4,14.3-14.2c8.9-9,15-19.8,20.7-30.9c1.4-2.6,2.3-5.5,3.4-8.2c6.7-17.4,13.2-34.9,22.4-51.3
		c2.5-4.4,3.9-9.4,5.3-14.2c2-6.7,4.1-13.4,5.1-20.2c2.5-18.3,4.8-36.6,3.7-55.1C578.9,405.4,578.8,404.8,578.7,404.2z"/>
	<path d="M265.1,360c-23.2,2.2-45-4.7-67.1-10c-31.2-7.5-62.3-15.6-92.1-27.9c-12.8-5.3-24.8-12.4-34.3-22.6
		c-3.6-3.9-7.1-9.7-7.3-14.8c-1-19.9-1.3-40,3.3-59.6c5-21.3,13.4-41.1,26.5-59c7.3-10,16.4-17.7,26.7-23.5c5.6-3.2,13-4.4,19.6-4.5
		c36.5-0.4,73-0.4,109.5,0.1c13.6,0.2,27,2.9,39.1,10c1.5,0.9,3.4,1.2,5,1.9c2.7,1.1,4.2,2.5,4.9,6c1.4,7.8,4,15.4,6.1,23.1
		c0.4,1.6,0.6,3.2,0.9,4.8c0.3,1.4,0.3,3.2,1.2,4.1c8.6,8.2,9.6,18.9,9.7,29.7c0,12-0.6,23.9-0.9,35.9c0,0.5,0.1,1.1-0.1,1.5
		c-4.7,9.2-3.5,19.4-5.5,29.1c-1.2,6.1-1.1,12.6-1.4,18.9c-0.6,10.4-3.8,20-8.1,29.4c-1,2.2-1.2,4.8-1.9,7.1
		c-1.3,4.2-2.1,8.7-4.1,12.6c-2.5,5-6.7,8-12.8,7.7C276.4,359.8,270.7,360,265.1,360z M296,176.4c1.1-11.2-5.3-19.2-15-24.4
		c-10.7-5.7-22.8-6.9-34.8-7c-33.8-0.1-67.6,0.3-101.5-0.2c-16.3-0.3-28.8,6.9-38.8,18c-15.8,17.5-25.5,38.7-31.1,61.6
		C70,244,70.7,264.1,71.2,284c0.1,3.6,2.6,7.7,5.2,10.4c9.4,9.6,20.6,16.8,33,21.8c28.9,11.7,59,19.7,89.3,26.8
		c12.9,3,25.6,7.3,38.7,8.8c14.8,1.7,29.9,1.1,44.9,1c2.2,0,5.1-1.9,6.3-3.8c1.8-2.6,2.4-6.1,3.3-9.2c1-3.5,1.6-7,2.6-10.5
		c2.4-8.5,5.5-16.8,7.2-25.5c1.5-7.4,1.3-15.2,2.2-22.8c1.1-8.8,0.6-17.9,4.8-26.2c0.2-0.4,0.1-1,0.1-1.5
		c0.3-13.1,0.8-26.2,0.9-39.4c0-3.7-1.1-7.4-1.7-11.2c-1.1,0.8-1.2,1.5-1,2c1.2,3,1.1,5.6-2.7,5.8c-3.3,0.2-4.5-2.3-4.5-5.4
		c0-3-0.3-6,0-9c0.7-7.3-5.6-12.5-11.4-13.4c-12.9-2-25.9-3.3-38.8-5.1c-1.5-0.2-3-1.1-4.1-2.2c-0.5-0.5-0.3-2.7,0.3-3.1
		c1.4-0.9,3.3-1.8,4.9-1.6C266,172.7,280.9,174.6,296,176.4z"/>
	<path d="M518,167.3c6.9,13.3,14.5,27.5,21.4,41.9c1.9,3.9,2.2,8.7,2.5,13.1c1.3,19.2-2,38-5,56.9c-1.6,10.3-1,20.9-0.8,31.4
		c0.1,4.9-1.5,7-6.3,8.3c-10.2,2.8-20.1,6.5-30.2,9.5c-9.1,2.7-18.4,4.1-28,3.7c-9.3-0.4-18.7,0.2-28-0.2c-7.6-0.3-15.2-1-22.6-2.4
		c-17.8-3.6-27.5-20.1-24.8-38.2c3.2-21.7,7.9-42.9,14-64c2.6-9.2,2.6-19.1,4.9-28.4c5.5-21.9,11.3-43.9,25.9-61.8
		c9.3-11.4,21.3-19.3,37.2-19.2c5.8,0,9.7,1.6,14.4,5.2c8.5,6.3,12.7,14.9,17.4,23.6c2.4,4.4,5.2,8.5,7.3,13
		C518.3,161.5,517.8,164,518,167.3z M502.6,146.5c-5-6.4-8-13.1-14.6-17.9c-7-5.1-13.8-4.7-20.5-2.2c-20,7.4-29.5,24.5-36.5,43
		s-10,38-13.9,57.3c-4.4,21.5-11.1,42.5-13.9,64.4c-1.9,14.5,3.9,26.6,17.7,31.3c4.6,1.6,9.7,2.3,14.6,2.4
		c14.8,0.3,29.6,0.1,44.5,0.1c1.8,0,3.7-0.1,5.4-0.6c14.6-3.9,29.2-7.8,43.6-11.7c0-7.6-0.1-13.8,0-19.9c0.1-4.5,0-9,0.7-13.4
		c2.8-17.2,5.9-34.2,5.6-51.9c-0.2-11.4-4.1-21.1-8.9-30.6c-6.7-13.1-14.4-25.6-21.7-38.4c-0.8-1.4-1.6-3.1-2.8-4.1
		C498,151.4,499.1,149,502.6,146.5z"/>
	<path d="M103,533.4c9.6,4.2,13.7,14.6,10.6,26.3c9.3,1.2,13.3,8.3,7.6,15.9c-4.5,6.1-5.2,12.2-5.5,19.2c-0.2,6.1-2.8,11.2-9.3,14.6
		c-7.3,3.8-14.7,4.4-22.1,3.4c-6.7-0.9-14.1-2.5-19.2-6.3c-5-3.7-8.3-10.4-11-16.5c-4.3-9.7-7.6-20-11.2-30c-0.6-1.8-1-3.8-1-5.8
		c-0.1-15-0.3-30-0.1-45c0.1-7.3,3.3-13.8,9-18c3.2-2.4,8.4-2,13-2.9c-0.3-0.7-0.3-2.1-1-2.4c-5-2.5-4-7.1-4-11.3
		c0-6.7-0.1-13.3,0-20c0.1-5,0.8-10.3,5.9-12.2c5.2-2,10.3-0.3,14.3,4.2c5.6,6.2,9,12.8,8.9,21.5c-0.1,4.4,2.6,8.7,3.1,13.1
		c1.1,9.1,5.3,17.7,3.8,27.1c-0.2,1.1,0.4,2.8,1.3,3.4c6.3,4.6,7.4,11,6.7,18.1C102.9,531,103,532,103,533.4z M65.1,496.5
		c-11.4-2.1-15.8,5.5-16,14.7C48.8,525,49,538.8,49,552.7c0,1.3-0.1,2.8,0.3,3.9c5.2,13.1,10.3,26.2,15.7,39.1
		c1.7,4.1,4.9,6.5,9.7,6.3c1.8-0.1,4.2-0.2,5.2,0.9c4.6,4.9,10.4,3.3,15.6,2.9c9.8-0.8,14-6.4,13.5-16c-0.1-2.8-1.1-3.9-3.8-3.9
		c-5,0.1-10,0.3-15-0.1c-1.7-0.1-3.3-1.9-4.9-2.9c1.6-1.3,3.1-3.6,4.8-3.7c4.8-0.5,9.6-0.3,14.5-0.2s8.1-2.6,10.4-6.5
		c2.2-3.9,1.3-5.5-3.2-5.5c-7-0.1-14,0.2-21-0.2c-1.9-0.1-5-1.7-5.2-3c-0.5-3.1,2.3-3.5,5-3.9c4.8-0.8,9.7-1.9,14.3-3.4
		c1.3-0.4,3-2.7,2.8-3.9c-0.9-6.7-3.6-13.6-12.1-13.6c-3.8,0-7.5,0.7-11.3,0.9c-2.7,0.1-6.8,0.8-6.6-2.9c0.1-2.1,3.9-4.1,6.2-5.9
		c0.6-0.5,1.9-0.1,2.9-0.1c2.9,0,5.9,0,9.1,0c0-2.1,0-3.6,0-5.1c0-7-6-10.8-12.8-8.8c-3.6,1-7.6,0.6-11.4,0.5
		c-0.8,0-2.1-1.5-2.2-2.4c-0.4-3.2,1.2-5.6,4.4-6.1c4.5-0.7,9.1-1.1,13.7-1.6c0.1-0.6,0.3-1,0.2-1.5c-1.4-9.5-2.6-19-4.2-28.5
		c-0.5-3-2.5-5.8-2.6-8.7c-0.2-6.9-2.6-12.7-7.4-17.3c-1.4-1.3-3.8-2.2-5.6-2c-0.9,0.1-1.9,3.2-2,5c-0.2,6.8-0.1,13.7-0.1,20.5
		c0,1.1,0.1,2.5,0.7,3.2c7.1,7.6,5.1,17,5.1,26c0,1.2-2,2.5-3.1,3.7c-1.2-1.2-3.1-2.2-3.5-3.6C64.7,501.7,65.1,499,65.1,496.5z"/>
	<path class="st0" d="M296,176.4c-15.1-1.8-30-3.6-44.9-5.3c-1.6-0.2-3.5,0.7-4.9,1.6c-0.6,0.4-0.8,2.6-0.3,3.1c1.1,1,2.6,2,4.1,2.2
		c12.9,1.8,25.9,3.2,38.8,5.1c5.8,0.9,12.1,6.1,11.4,13.4c-0.3,3,0,6,0,9s1.1,5.6,4.5,5.4c3.7-0.3,3.9-2.9,2.7-5.8
		c-0.2-0.5,0-1.2,1-2c0.6,3.7,1.8,7.4,1.7,11.2c-0.1,13.1-0.6,26.2-0.9,39.4c0,0.5,0.1,1.1-0.1,1.5c-4.2,8.2-3.7,17.4-4.8,26.2
		c-1,7.6-0.7,15.3-2.2,22.8c-1.7,8.6-4.8,17-7.2,25.5c-1,3.5-1.6,7-2.6,10.5c-0.9,3.1-1.6,6.6-3.3,9.2c-1.3,1.9-4.2,3.8-6.3,3.8
		c-15,0-30.1,0.6-44.9-1c-13-1.5-25.8-5.7-38.7-8.8c-30.3-7.1-60.4-15.1-89.3-26.8c-12.4-5-23.6-12.2-33-21.8
		c-2.6-2.7-5.1-6.8-5.2-10.4c-0.6-19.9-1.2-40,3.6-59.6c5.6-22.9,15.3-44,31.1-61.6c10.1-11.1,22.6-18.3,38.8-18
		c33.8,0.6,67.6,0.1,101.5,0.2c12,0,24.1,1.3,34.8,7C290.7,157.1,297,165.2,296,176.4z"/>
	<path class="st0" d="M502.6,146.5c-3.5,2.4-4.6,4.9-0.7,7.9c1.2,1,2,2.6,2.8,4.1c7.3,12.8,15.1,25.3,21.7,38.4
		c4.8,9.5,8.7,19.2,8.9,30.6c0.3,17.6-2.8,34.7-5.6,51.9c-0.7,4.4-0.6,8.9-0.7,13.4c-0.1,6.2,0,12.3,0,19.9
		c-14.4,3.9-29,7.8-43.6,11.7c-1.7,0.5-3.6,0.5-5.4,0.6c-14.8,0-29.7,0.2-44.5-0.1c-4.9-0.1-10-0.9-14.6-2.4
		c-13.8-4.7-19.6-16.8-17.7-31.3c2.8-21.9,9.5-42.9,13.9-64.4c4-19.3,7-38.8,13.9-57.3c7-18.5,16.4-35.6,36.5-43
		c6.6-2.5,13.4-2.9,20.5,2.2C494.6,133.4,497.7,140.1,502.6,146.5z M456.7,250.1c0.1,0,0.2,0,0.3,0c0,3-0.1,6,0,9
		c0.3,5.7,5.4,10.6,10.9,10.9c2.6,0.1,5.2,0.7,7.8,0.9c7.8,0.5,15.3,0.3,20.3-7.4c5.7-8.9,9.1-18.5,9-29.2c0-9.3-6.1-15.5-15.4-15.3
		c-6.1,0.1-12.3,1.8-18.3,1c-5.6-0.8-6.3,1.2-6.5,5.6c-0.1,1.5-1.4,3.1-2.2,4.5c-1.6,2.7-4,5.2-4.8,8.1
		C456.8,242.1,457,246.2,456.7,250.1z"/>
	<path class="st0" d="M65.1,496.5c0,2.5-0.4,5.2,0.2,7.7c0.3,1.4,2.2,2.4,3.5,3.6c1.1-1.2,3.1-2.5,3.1-3.7c0.1-9,2.1-18.4-5.1-26
		c-0.7-0.7-0.7-2.1-0.7-3.2c-0.1-6.8-0.2-13.7,0.1-20.5c0.1-1.8,1.1-4.9,2-5c1.8-0.2,4.3,0.7,5.6,2c4.8,4.7,7.2,10.4,7.4,17.3
		c0.1,2.9,2.1,5.7,2.6,8.7c1.6,9.5,2.9,19,4.2,28.5c0.1,0.5-0.1,0.9-0.2,1.5c-4.6,0.5-9.2,0.9-13.7,1.6c-3.3,0.5-4.8,2.8-4.4,6.1
		c0.1,0.9,1.4,2.4,2.2,2.4c3.8,0.1,7.9,0.6,11.4-0.5c6.7-2,12.7,1.8,12.8,8.8c0,1.5,0,3,0,5.1c-3.2,0-6.1,0-9.1,0
		c-1,0-2.3-0.4-2.9,0.1c-2.3,1.8-6.1,3.8-6.2,5.9c-0.2,3.8,3.9,3.1,6.6,2.9c3.8-0.2,7.5-0.9,11.3-0.9c8.5-0.1,11.2,6.8,12.1,13.6
		c0.2,1.2-1.5,3.5-2.8,3.9c-4.7,1.5-9.5,2.6-14.3,3.4c-2.7,0.4-5.5,0.8-5,3.9c0.2,1.3,3.3,2.9,5.2,3c7,0.4,14,0.1,21,0.2
		c4.4,0,5.4,1.6,3.2,5.5c-2.2,4-5.4,6.6-10.4,6.5c-4.8-0.1-9.7-0.4-14.5,0.2c-1.7,0.2-3.2,2.4-4.8,3.7c1.6,1,3.2,2.8,4.9,2.9
		c5,0.4,10,0.2,15,0.1c2.8-0.1,3.7,1.1,3.8,3.9c0.4,9.6-3.7,15.1-13.5,16c-5.2,0.4-11,2-15.6-2.9c-1-1-3.4-0.9-5.2-0.9
		c-4.8,0.2-8-2.2-9.7-6.3c-5.4-13-10.5-26.1-15.7-39.1c-0.5-1.2-0.3-2.6-0.3-3.9c0-13.8-0.2-27.6,0.1-41.5
		C49.2,502,53.7,494.4,65.1,496.5z"/>
	<path d="M456.7,250.1c0.3-4,0.1-8.1,1.1-11.8c0.8-2.9,3.2-5.4,4.8-8.1c0.9-1.5,2.2-3,2.2-4.5c0.2-4.4,0.9-6.4,6.5-5.6
		c5.9,0.9,12.1-0.8,18.3-1c9.3-0.2,15.3,6,15.4,15.3c0,10.7-3.3,20.3-9,29.2c-4.9,7.7-12.4,7.9-20.3,7.4c-2.6-0.2-5.2-0.8-7.8-0.9
		c-5.5-0.3-10.5-5.2-10.9-10.9c-0.2-3,0-6,0-9C456.9,250.1,456.8,250.1,456.7,250.1z"/>
</g>
<path d="M144.7,252.1c0.3-4,0.1-8.1,1.1-11.8c0.8-2.9,3.2-5.4,4.8-8.1c0.9-1.5,2.2-3,2.2-4.5c0.2-4.4,18.6-6.4,24.8-6.6
	c9.3-0.2,15.3,6,15.4,15.3c0,10.7-3.3,20.3-9,29.2c-4.9,7.7-12.4,7.9-20.3,7.4c-2.6-0.2-5.2-0.8-7.8-0.9
	c-5.5-0.3-10.5-5.2-10.9-10.9c-0.2-3,0-6,0-9C144.9,252.1,144.8,252.1,144.7,252.1z"/>
</svg>
